<?xml version="1.0" encoding="utf-8"?>
<!-- Generator: Adobe Illustrator 27.4.1, SVG Export Plug-In . SVG Version: 6.00 Build 0)  -->
<svg version="1.1" id="Layer_1" xmlns="http://www.w3.org/2000/svg" xmlns:xlink="http://www.w3.org/1999/xlink" x="0px" y="0px"
	 viewBox="0 0 20 20" style="enable-background:new 0 0 20 20;" xml:space="preserve">
<g>
	<g>
		<path d="M4.3,5.76C4.28,6.25,4.29,6.74,4.32,7.23C4.31,7.43,4.35,7.62,4.44,7.8c0.06,0.19,0.16,0.35,0.31,0.48
			c0.14,0.15,0.3,0.25,0.48,0.31c0.18,0.09,0.37,0.14,0.58,0.13c0.13-0.02,0.27-0.04,0.4-0.05c0.25-0.07,0.47-0.2,0.66-0.39
			c0.08-0.1,0.16-0.2,0.23-0.3c0.14-0.23,0.2-0.49,0.2-0.76C7.29,6.74,7.28,6.25,7.3,5.76c0.01-0.21-0.04-0.4-0.13-0.58
			C7.11,5,7.01,4.84,6.86,4.7c-0.14-0.15-0.3-0.25-0.48-0.31C6.2,4.3,6.01,4.26,5.8,4.26C5.67,4.28,5.53,4.3,5.4,4.32
			C5.15,4.39,4.93,4.52,4.74,4.7c-0.08,0.1-0.16,0.2-0.23,0.3C4.37,5.24,4.3,5.49,4.3,5.76L4.3,5.76z"/>
	</g>
</g>
<g>
	<g>
		<path d="M10.11,6.11c0,0.44,0,0.89,0,1.33c-0.01,0.21,0.04,0.4,0.13,0.58c0.06,0.19,0.16,0.35,0.31,0.48
			c0.14,0.15,0.3,0.25,0.48,0.31c0.18,0.09,0.37,0.14,0.58,0.13c0.13-0.02,0.27-0.04,0.4-0.05c0.25-0.07,0.47-0.2,0.66-0.39
			c0.08-0.1,0.16-0.2,0.23-0.3c0.14-0.23,0.2-0.49,0.2-0.76c0-0.44,0-0.89,0-1.33c0.01-0.21-0.04-0.4-0.13-0.58
			c-0.06-0.19-0.16-0.35-0.31-0.48c-0.14-0.15-0.3-0.25-0.48-0.31c-0.18-0.09-0.37-0.14-0.58-0.13c-0.13,0.02-0.27,0.04-0.4,0.05
			c-0.25,0.07-0.47,0.2-0.66,0.39c-0.08,0.1-0.16,0.2-0.23,0.3C10.18,5.59,10.11,5.84,10.11,6.11L10.11,6.11z"/>
	</g>
</g>
<g>
	<g>
		<path d="M16.45,5.41c0.09,1.57-0.08,3.06-0.91,4.42c-0.77,1.26-1.85,2.37-2.97,3.34c-1,0.87-2.17,1.61-3.45,2
			c-0.6,0.18-1.27,0.37-1.91,0.3c-0.72-0.08-1.17-0.7-1.61-1.21c-0.52-0.62-1.58-0.54-2.12,0c-0.61,0.61-0.53,1.5,0,2.12
			c0.68,0.81,1.47,1.54,2.5,1.87C7,18.58,8.08,18.49,9.1,18.28c1.9-0.39,3.6-1.38,5.1-2.57c1.46-1.16,2.79-2.6,3.81-4.16
			c1.19-1.83,1.56-3.98,1.45-6.13c-0.04-0.81-0.66-1.5-1.5-1.5C17.17,3.91,16.41,4.6,16.45,5.41L16.45,5.41z"/>
	</g>
</g>
</svg>
