<?xml version="1.0" encoding="utf-8"?>
<!-- Generator: Adobe Illustrator 27.4.1, SVG Export Plug-In . SVG Version: 6.00 Build 0)  -->
<svg version="1.1" id="Layer_1" xmlns="http://www.w3.org/2000/svg" xmlns:xlink="http://www.w3.org/1999/xlink" x="0px" y="0px"
	 viewBox="0 0 1366 100" style="enable-background:new 0 0 1366 100;" xml:space="preserve">
<g>
	<path d="M122.12,37.98c-9-2.98-20.99-4.47-35.98-4.47c-13.18,0-25.21,1.5-36.12,4.51V4.78H19.35v70.54h30.67V55.65
		c0-5.01,2.13-8.55,6.41-10.61c4.36-2.03,11.9-3.05,22.62-3.05c8.36,0,14.42,0.73,18.19,2.19c3.77,1.46,5.66,3.82,5.66,7.08v24.05
		h30.67V50.39C133.57,44.71,129.75,40.57,122.12,37.98z"/>
	<path d="M270.27,39.36c-12.27-3.9-26.12-5.85-41.57-5.85c-17.9,0-32.8,2.03-44.7,6.1c-11.9,4.06-17.85,9.15-17.85,15.24
		c0,6.21,5.95,11.39,17.85,15.54c11.99,4.07,27.17,6.1,45.52,6.1c14.54,0,28.12-1.81,40.75-5.43v4.26h30.8V34.64h-30.8V39.36z
		 M261.68,64.5c-7,2.39-16.17,3.59-27.53,3.59c-10.63,0-19.45-1.24-26.44-3.72c-6.81-2.45-10.22-5.62-10.22-9.52
		c0-3.65,3.5-6.71,10.49-9.19c7.09-2.45,15.9-3.67,26.44-3.67c11.18,0,20.26,1.21,27.26,3.63c7,2.48,10.49,5.62,10.49,9.44
		C272.18,58.88,268.68,62.02,261.68,64.5z"/>
	<rect x="339.78" y="34.64" width="30.67" height="40.68"/>
	<path d="M369.22,13.47c-3.91-1.2-8.63-1.8-14.17-1.8c-5.45,0-10.13,0.6-14.04,1.8c-3.91,1.2-5.86,2.62-5.86,4.26
		c0,1.73,1.95,3.19,5.86,4.39c3.91,1.2,8.63,1.8,14.17,1.8c5.54,0,10.22-0.6,14.04-1.8c3.91-1.2,5.86-2.65,5.86-4.34
		C375.08,16.07,373.12,14.64,369.22,13.47z"/>
	<path d="M488.75,66.42c-5,1.11-11.31,1.67-18.94,1.67c-9.81,0-17.85-0.97-24.12-2.92c-6.27-1.98-9.81-4.64-10.63-7.98h95.13
		l0.14-2.21c0-6.71-5.63-11.96-16.9-15.74c-11.36-3.81-26.8-5.72-46.34-5.72c-19.35,0-34.89,1.96-46.61,5.89
		c-11.63,3.98-17.45,9.19-17.45,15.62c0,6.49,6,11.69,17.99,15.62c11.99,3.9,27.89,5.85,47.7,5.85c6.9,0,13.31-0.22,19.22-0.67
		c5.91-0.45,11.4-1.15,16.49-2.11c5.09-0.96,9.86-2.19,14.31-3.68c4.45-1.49,8.68-3.28,12.68-5.37l-25.9-4.43
		C499.24,63.25,493.65,65.31,488.75,66.42z M441.45,46.38c1.91-0.92,4.2-1.71,6.88-2.36c2.68-0.65,5.66-1.16,8.93-1.5
		c3.27-0.35,6.77-0.52,10.49-0.52c16.35,0,26.67,2.51,30.94,7.52h-61.6C438.09,48.34,439.55,47.3,441.45,46.38z"/>
	<path d="M600.78,66.59c-3.73-1.14-8.18-1.71-13.36-1.71s-9.63,0.57-13.36,1.71c-3.73,1.14-5.59,2.49-5.59,4.05
		c0,1.67,1.82,3.06,5.45,4.18c3.63,1.11,8.13,1.67,13.49,1.67c5.27,0,9.72-0.56,13.36-1.67c3.72-1.14,5.59-2.52,5.59-4.13
		C606.37,69.1,604.51,67.73,600.78,66.59z"/>
	<path d="M727.12,55.56c-5.64-1.81-16.58-3.79-32.85-5.93c-11.81-1.53-17.72-3.08-17.72-4.64c0-0.89,1-1.62,3-2.19
		c2-0.57,4.41-0.86,7.22-0.86c5.91,0,10.86,1.25,14.86,3.76l25.35-4.13c-8.27-5.37-20.9-8.06-37.89-8.06
		c-11.54,0-21.35,1.16-29.44,3.47c-7.9,2.31-11.86,5.23-11.86,8.77c0,2.67,2.32,4.86,6.95,6.56c3.63,1.34,9.9,2.67,18.81,4.01
		c3.18,0.47,6.31,0.93,9.4,1.38c3.09,0.45,6.18,0.91,9.27,1.38c8,1.45,11.99,3.01,11.99,4.68c0,2.9-5.18,4.34-15.54,4.34
		c-5.18,0-9.63-0.53-13.36-1.59c-1.91-0.53-4.68-1.77-8.31-3.72l-26.17,3.72c9.27,6.65,25.03,9.98,47.29,9.98
		c12.99,0,24.08-1.25,33.26-3.76c9.45-2.65,14.17-5.93,14.17-9.86C735.57,59.81,732.76,57.38,727.12,55.56z"/>
	<path d="M880.05,39.7c-11.81-4.12-26.85-6.18-45.11-6.18c-15.36,0-29.08,1.85-41.16,5.55v-4.43h-30.67v62.81h30.67V70.77
		c12.27,3.81,26.17,5.72,41.71,5.72c17.99,0,32.89-2.02,44.7-6.05c11.9-4.07,17.85-9.15,17.85-15.24
		C898.04,48.95,892.04,43.79,880.05,39.7z M856.06,64.42c-6.91,2.45-15.67,3.68-26.3,3.68c-11.27,0-20.35-1.21-27.26-3.63
		c-7-2.48-10.49-5.62-10.49-9.44c0-3.9,3.5-7.04,10.49-9.44c7-2.39,16.13-3.59,27.39-3.59c10.63,0,19.44,1.24,26.44,3.72
		c6.9,2.45,10.36,5.62,10.36,9.52C866.69,58.91,863.15,61.97,856.06,64.42z"/>
	<path d="M1028.33,39.36c-12.27-3.9-26.12-5.85-41.57-5.85c-17.9,0-32.8,2.03-44.71,6.1c-11.9,4.06-17.85,9.15-17.85,15.24
		c0,6.21,5.95,11.39,17.85,15.54c11.99,4.07,27.17,6.1,45.52,6.1c14.54,0,28.12-1.81,40.75-5.43v4.26h30.8V34.64h-30.8V39.36z
		 M1019.75,64.5c-7,2.39-16.17,3.59-27.53,3.59c-10.63,0-19.45-1.24-26.44-3.72c-6.81-2.45-10.22-5.62-10.22-9.52
		c0-3.65,3.5-6.71,10.49-9.19c7.09-2.45,15.9-3.67,26.44-3.67c11.18,0,20.26,1.21,27.26,3.63c7,2.48,10.5,5.62,10.5,9.44
		C1030.24,58.88,1026.74,62.02,1019.75,64.5z"/>
	<path d="M1112.56,39.78c-13.99,4.18-20.99,9.3-20.99,15.37s6.9,11.15,20.72,15.24c13.81,4.07,30.98,6.1,51.52,6.1
		c12.45,0,24.9-0.99,37.34-2.96v-12.4c-7.36,2.73-13.77,4.57-19.22,5.51c-5.63,0.97-12.13,1.46-19.49,1.46
		c-11.54,0-21.04-1.22-28.49-3.68c-7.36-2.45-11.04-5.58-11.04-9.4c0-3.73,3.82-6.83,11.45-9.31c7.63-2.48,17.22-3.72,28.76-3.72
		c7.36,0,13.77,0.5,19.22,1.5c5.54,0.97,11.81,2.77,18.81,5.39V36.4c-11.63-1.92-23.99-2.88-37.07-2.88
		C1143.73,33.51,1126.55,35.6,1112.56,39.78z"/>
	<path d="M1327.09,60.24c-6.27,3.01-11.86,5.07-16.76,6.18c-5,1.11-11.31,1.67-18.95,1.67c-9.81,0-17.85-0.97-24.12-2.92
		c-6.27-1.98-9.81-4.64-10.63-7.98h95.13l0.14-2.21c0-6.71-5.63-11.96-16.9-15.74c-11.36-3.81-26.81-5.72-46.34-5.72
		c-19.35,0-34.89,1.96-46.61,5.89c-11.63,3.98-17.45,9.19-17.45,15.62c0,6.49,6,11.69,17.99,15.62c11.99,3.9,27.89,5.85,47.7,5.85
		c6.9,0,13.31-0.22,19.22-0.67c5.91-0.45,11.4-1.15,16.49-2.11c5.09-0.96,9.86-2.19,14.31-3.68c4.45-1.49,8.68-3.28,12.67-5.37
		L1327.09,60.24z M1263.03,46.38c1.91-0.92,4.2-1.71,6.88-2.36c2.68-0.65,5.66-1.16,8.93-1.5c3.27-0.35,6.77-0.52,10.5-0.52
		c16.35,0,26.67,2.51,30.94,7.52h-61.6C1259.67,48.34,1261.12,47.3,1263.03,46.38z"/>
</g>
</svg>
